<svg width="786.396875px" height="167.6px" xmlns="http://www.w3.org/2000/svg" viewBox="-143.1984375 -8.799999999999997 786.396875 167.6" style="background: rgb(29, 21, 10);" preserveAspectRatio="xMidYMid"><defs><linearGradient id="editing-outline-gradient" x1="0.7249510543438649" x2="0.2750489456561352" y1="-0.47437006478523525" y2="1.4743700647852354"><stop offset="0" stop-color="#edb426"></stop><stop offset="1" stop-color="#53493c"></stop></linearGradient><filter id="editing-outline" x="-100%" y="-100%" width="300%" height="300%"><feMorphology in="SourceGraphic" operator="dilate" radius="1" result="outline"></feMorphology><feComposite operator="out" in="outline" in2="SourceAlpha"></feComposite></filter></defs><g filter="url(#editing-outline)"><g transform="translate(-31.810041904449463, 109.07500076293945)"><path d="M23.99 0.33L4.98-61.18L16.35-61.18L29.22-13.20L29.22 0.33L23.99 0.33ZM32.62-15.85L45.57-61.18L56.86-61.18L36.94 0.33L32.62 0.33L32.62-15.85ZM78.86-46.82L78.86 0L68.73 0L68.73-46.82L78.86-46.82ZM79.77-61.76L79.77-61.76L79.77-61.76Q79.77-59.27 78.03-57.57L78.03-57.57L78.03-57.57Q76.28-55.86 73.79-55.86L73.79-55.86L73.79-55.86Q71.30-55.86 69.60-57.61L69.60-57.61L69.60-57.61Q67.90-59.35 67.90-61.76L67.90-61.76L67.90-61.76Q67.90-64.25 69.64-65.99L69.64-65.99L69.64-65.99Q71.39-67.73 73.79-67.73L73.79-67.73L73.79-67.73Q76.28-67.73 78.03-65.99L78.03-65.99L78.03-65.99Q79.77-64.25 79.77-61.76ZM129.41-46.82L112.97-23.49L131.57 0L120.11 0L106.50-17.93L106.50-29.47L118.12-46.82L129.41-46.82ZM103.10 0L92.97 0L92.97-64.50L103.10-64.50L103.10 0ZM149.91-14.11L149.91-14.11L149.91-14.11Q149.91-10.38 151.45-8.55L151.45-8.55L151.45-8.55Q152.98-6.72 155.89-6.39L155.89-6.39L155.89 0.33L155.89 0.33Q155.56 0.42 154.81 0.42L154.81 0.42L154.81 0.42Q151.99 0.42 149.37-0.33L149.37-0.33L149.37-0.33Q146.76-1.08 144.77-2.74L144.77-2.74L144.77-2.74Q142.77-4.40 141.65-7.14L141.65-7.14L141.65-7.14Q140.53-9.88 140.53-13.86L140.53-13.86L140.53-13.86Q140.53-17.68 142.15-20.46L142.15-20.46L142.15-20.46Q143.77-23.24 146.30-25.03L146.30-25.03L146.30-25.03Q148.83-26.81 152.07-27.68L152.07-27.68L152.07-27.68Q155.31-28.55 158.63-28.55L158.63-28.55L162.28-28.55L162.28-22.66L160.45-22.66L160.45-22.66Q158.79-22.66 156.97-22.33L156.97-22.33L156.97-22.33Q155.14-22.00 153.56-21.08L153.56-21.08L153.56-21.08Q151.99-20.17 150.95-18.47L150.95-18.47L150.95-18.47Q149.91-16.77 149.91-14.11ZM175.73-14.53L175.73-13.86L175.73-13.86Q175.73-13.20 175.81-11.91L175.81-11.91L175.81-11.91Q175.89-10.63 176.14-9.30L176.14-9.30L176.14-9.30Q176.39-7.97 176.93-6.89L176.93-6.89L176.93-6.89Q177.47-5.81 178.38-5.48L178.38-5.48L175.73 0.08L175.73 0.08Q174.65 0.08 173.44-0.42L173.44-0.42L173.44-0.42Q172.24-0.91 171.12-1.83L171.12-1.83L171.12-1.83Q170-2.74 169.21-3.86L169.21-3.86L169.21-3.86Q168.42-4.98 168.01-6.31L168.01-6.31L168.01-6.31Q167.18-4.23 164.73-2.61L164.73-2.61L164.73-2.61Q162.28-1.00 159.29-0.25L159.29-0.25L159.29-6.56L159.29-6.56Q161.28-6.97 162.90-8.18L162.90-8.18L162.90-8.18Q164.52-9.38 165.68-11.04L165.68-11.04L165.68-28.55L165.68-28.55Q165.68-32.62 165.27-35.03L165.27-35.03L165.27-35.03Q164.85-37.44 163.86-38.56L163.86-38.56L163.86-38.56Q162.86-39.68 161.41-39.97L161.41-39.97L161.41-39.97Q159.96-40.26 157.96-40.26L157.96-40.26L157.96-40.26Q156.14-40.26 154.52-39.80L154.52-39.80L154.52-39.80Q152.90-39.35 151.53-38.72L151.53-38.72L151.53-38.72Q150.16-38.10 149.12-37.35L149.12-37.35L149.12-37.35Q148.09-36.61 147.59-36.19L147.59-36.19L143.85-41.92L143.85-41.92Q144.68-42.83 146.34-43.79L146.34-43.79L146.34-43.79Q148.00-44.74 150.16-45.49L150.16-45.49L150.16-45.49Q152.32-46.24 154.85-46.69L154.85-46.69L154.85-46.69Q157.38-47.15 160.12-47.15L160.12-47.15L160.12-47.15Q162.61-47.15 164.98-46.65L164.98-46.65L164.98-46.65Q167.34-46.15 169.29-44.99L169.29-44.99L169.29-44.99Q171.25-43.83 172.70-41.88L172.70-41.88L172.70-41.88Q174.15-39.93 174.73-37.02L174.73-37.02L174.73-37.02Q175.31-34.12 175.52-31.17L175.52-31.17L175.52-31.17Q175.73-28.22 175.73-25.32L175.73-25.32L175.73-14.53ZM199.72-14.11L199.72-14.11L199.72-14.11Q199.72-10.38 201.25-8.55L201.25-8.55L201.25-8.55Q202.79-6.72 205.69-6.39L205.69-6.39L205.69 0.33L205.69 0.33Q205.36 0.42 204.61 0.42L204.61 0.42L204.61 0.42Q201.79 0.42 199.18-0.33L199.18-0.33L199.18-0.33Q196.56-1.08 194.57-2.74L194.57-2.74L194.57-2.74Q192.58-4.40 191.46-7.14L191.46-7.14L191.46-7.14Q190.34-9.88 190.34-13.86L190.34-13.86L190.34-13.86Q190.34-17.68 191.96-20.46L191.96-20.46L191.96-20.46Q193.57-23.24 196.11-25.03L196.11-25.03L196.11-25.03Q198.64-26.81 201.88-27.68L201.88-27.68L201.88-27.68Q205.11-28.55 208.43-28.55L208.43-28.55L212.08-28.55L212.08-22.66L210.26-22.66L210.26-22.66Q208.60-22.66 206.77-22.33L206.77-22.33L206.77-22.33Q204.95-22.00 203.37-21.08L203.37-21.08L203.37-21.08Q201.79-20.17 200.75-18.47L200.75-18.47L200.75-18.47Q199.72-16.77 199.72-14.11ZM225.53-14.53L225.53-13.86L225.53-13.86Q225.53-13.20 225.62-11.91L225.62-11.91L225.62-11.91Q225.70-10.63 225.95-9.30L225.95-9.30L225.95-9.30Q226.20-7.97 226.74-6.89L226.74-6.89L226.74-6.89Q227.28-5.81 228.19-5.48L228.19-5.48L225.53 0.08L225.53 0.08Q224.45 0.08 223.25-0.42L223.25-0.42L223.25-0.42Q222.05-0.91 220.93-1.83L220.93-1.83L220.93-1.83Q219.80-2.74 219.02-3.86L219.02-3.86L219.02-3.86Q218.23-4.98 217.81-6.31L217.81-6.31L217.81-6.31Q216.98-4.23 214.53-2.61L214.53-2.61L214.53-2.61Q212.08-1.00 209.10-0.25L209.10-0.25L209.10-6.56L209.10-6.56Q211.09-6.97 212.71-8.18L212.71-8.18L212.71-8.18Q214.33-9.38 215.49-11.04L215.49-11.04L215.49-28.55L215.49-28.55Q215.49-32.62 215.07-35.03L215.07-35.03L215.07-35.03Q214.66-37.44 213.66-38.56L213.66-38.56L213.66-38.56Q212.67-39.68 211.21-39.97L211.21-39.97L211.21-39.97Q209.76-40.26 207.77-40.26L207.77-40.26L207.77-40.26Q205.94-40.26 204.32-39.80L204.32-39.80L204.32-39.80Q202.71-39.35 201.34-38.72L201.34-38.72L201.34-38.72Q199.97-38.10 198.93-37.35L198.93-37.35L198.93-37.35Q197.89-36.61 197.39-36.19L197.39-36.19L193.66-41.92L193.66-41.92Q194.49-42.83 196.15-43.79L196.15-43.79L196.15-43.79Q197.81-44.74 199.97-45.49L199.97-45.49L199.97-45.49Q202.12-46.24 204.66-46.69L204.66-46.69L204.66-46.69Q207.19-47.15 209.93-47.15L209.93-47.15L209.93-47.15Q212.42-47.15 214.78-46.65L214.78-46.65L214.78-46.65Q217.15-46.15 219.10-44.99L219.10-44.99L219.10-44.99Q221.05-43.83 222.50-41.88L222.50-41.88L222.50-41.88Q223.96-39.93 224.54-37.02L224.54-37.02L224.54-37.02Q225.12-34.12 225.32-31.17L225.32-31.17L225.32-31.17Q225.53-28.22 225.53-25.32L225.53-25.32L225.53-14.53ZM240.31-33.45L240.31-33.45L240.31-33.45Q240.31-36.61 241.47-39.14L241.47-39.14L241.47-39.14Q242.63-41.67 244.71-43.45L244.71-43.45L244.71-43.45Q246.78-45.24 249.40-46.28L249.40-46.28L249.40-46.28Q252.01-47.31 254.83-47.56L254.83-47.56L254.83-39.26L254.83-39.26Q252.68-38.85 251.47-37.52L251.47-37.52L251.47-37.52Q250.27-36.19 250.27-33.78L250.27-33.78L250.27-33.78Q250.27-31.79 251.56-30.59L251.56-30.59L251.56-30.59Q252.84-29.38 254.83-28.47L254.83-28.47L254.83-19.59L254.83-19.59Q253.42-20.00 251.97-20.54L251.97-20.54L251.97-20.54Q250.52-21.08 249.11-21.75L249.11-21.75L249.11-21.75Q244.71-24.07 242.51-26.65L242.51-26.65L242.51-26.65Q240.31-29.22 240.31-33.45ZM271.27-43.83L268.03-36.94L268.03-36.94Q265.79-38.10 263.26-38.68L263.26-38.68L263.26-38.68Q260.73-39.26 258.24-39.43L258.24-39.43L258.24-47.65L258.24-47.65Q261.97-47.48 265.13-46.61L265.13-46.61L265.13-46.61Q268.28-45.74 271.27-43.83L271.27-43.83ZM240.47-3.74L244.71-10.46L244.71-10.46Q246.37-9.30 248.65-8.30L248.65-8.30L248.65-8.30Q250.93-7.30 254.42-7.30L254.42-7.30L254.83-7.30L254.83 0.42L254.83 0.42Q252.76 0.42 251.02 0.29L251.02 0.29L251.02 0.29Q249.27 0.17 247.57-0.29L247.57-0.29L247.57-0.29Q245.87-0.75 244.13-1.58L244.13-1.58L244.13-1.58Q242.38-2.41 240.47-3.74L240.47-3.74ZM258.24-18.34L258.24-27.14L258.24-27.14Q260.73-26.31 263.30-25.32L263.30-25.32L263.30-25.32Q265.87-24.32 267.99-22.83L267.99-22.83L267.99-22.83Q270.11-21.33 271.48-19.13L271.48-19.13L271.48-19.13Q272.85-16.93 272.85-13.61L272.85-13.61L272.85-13.61Q272.85-10.38 271.68-7.97L271.68-7.97L271.68-7.97Q270.52-5.56 268.57-3.82L268.57-3.82L268.57-3.82Q266.62-2.08 263.96-1.08L263.96-1.08L263.96-1.08Q261.31-0.08 258.24 0.25L258.24 0.25L258.24-7.64L258.24-7.64Q261.06-8.13 262.60-9.42L262.60-9.42L262.60-9.42Q264.13-10.71 264.13-12.87L264.13-12.87L264.13-12.87Q264.13-15.02 262.43-16.23L262.43-16.23L262.43-16.23Q260.73-17.43 258.24-18.34L258.24-18.34ZM323.23-20.42L340.17-61.18L351.54-61.18L333.36-24.90L333.36 0L323.23 0L323.23-20.42ZM305.97-61.18L317.34-61.18L326.55-37.35L322.07-26.48L305.97-61.18ZM370.30-14.11L370.30-14.11L370.30-14.11Q370.30-10.38 371.83-8.55L371.83-8.55L371.83-8.55Q373.37-6.72 376.27-6.39L376.27-6.39L376.27 0.33L376.27 0.33Q375.94 0.42 375.20 0.42L375.20 0.42L375.20 0.42Q372.37 0.42 369.76-0.33L369.76-0.33L369.76-0.33Q367.14-1.08 365.15-2.74L365.15-2.74L365.15-2.74Q363.16-4.40 362.04-7.14L362.04-7.14L362.04-7.14Q360.92-9.88 360.92-13.86L360.92-13.86L360.92-13.86Q360.92-17.68 362.54-20.46L362.54-20.46L362.54-20.46Q364.16-23.24 366.69-25.03L366.69-25.03L366.69-25.03Q369.22-26.81 372.46-27.68L372.46-27.68L372.46-27.68Q375.69-28.55 379.01-28.55L379.01-28.55L382.67-28.55L382.67-22.66L380.84-22.66L380.84-22.66Q379.18-22.66 377.35-22.33L377.35-22.33L377.35-22.33Q375.53-22.00 373.95-21.08L373.95-21.08L373.95-21.08Q372.37-20.17 371.34-18.47L371.34-18.47L371.34-18.47Q370.30-16.77 370.30-14.11ZM396.11-14.53L396.11-13.86L396.11-13.86Q396.11-13.20 396.20-11.91L396.20-11.91L396.20-11.91Q396.28-10.63 396.53-9.30L396.53-9.30L396.53-9.30Q396.78-7.97 397.32-6.89L397.32-6.89L397.32-6.89Q397.86-5.81 398.77-5.48L398.77-5.48L396.11 0.08L396.11 0.08Q395.03 0.08 393.83-0.42L393.83-0.42L393.83-0.42Q392.63-0.91 391.51-1.83L391.51-1.83L391.51-1.83Q390.39-2.74 389.60-3.86L389.60-3.86L389.60-3.86Q388.81-4.98 388.39-6.31L388.39-6.31L388.39-6.31Q387.56-4.23 385.11-2.61L385.11-2.61L385.11-2.61Q382.67-1.00 379.68-0.25L379.68-0.25L379.68-6.56L379.68-6.56Q381.67-6.97 383.29-8.18L383.29-8.18L383.29-8.18Q384.91-9.38 386.07-11.04L386.07-11.04L386.07-28.55L386.07-28.55Q386.07-32.62 385.65-35.03L385.65-35.03L385.65-35.03Q385.24-37.44 384.24-38.56L384.24-38.56L384.24-38.56Q383.25-39.68 381.79-39.97L381.79-39.97L381.79-39.97Q380.34-40.26 378.35-40.26L378.35-40.26L378.35-40.26Q376.52-40.26 374.90-39.80L374.90-39.80L374.90-39.80Q373.29-39.35 371.92-38.72L371.92-38.72L371.92-38.72Q370.55-38.10 369.51-37.35L369.51-37.35L369.51-37.35Q368.47-36.61 367.97-36.19L367.97-36.19L364.24-41.92L364.24-41.92Q365.07-42.83 366.73-43.79L366.73-43.79L366.73-43.79Q368.39-44.74 370.55-45.49L370.55-45.49L370.55-45.49Q372.71-46.24 375.24-46.69L375.24-46.69L375.24-46.69Q377.77-47.15 380.51-47.15L380.51-47.15L380.51-47.15Q383.00-47.15 385.36-46.65L385.36-46.65L385.36-46.65Q387.73-46.15 389.68-44.99L389.68-44.99L389.68-44.99Q391.63-43.83 393.08-41.88L393.08-41.88L393.08-41.88Q394.54-39.93 395.12-37.02L395.12-37.02L395.12-37.02Q395.70-34.12 395.91-31.17L395.91-31.17L395.91-31.17Q396.11-28.22 396.11-25.32L396.11-25.32L396.11-14.53ZM440.85-64.50L450.98-64.50L450.98 0L441.44 0L440.85-5.56L440.85-64.50ZM408.98-24.07L408.98-24.07L408.98-24.07Q408.98-30.55 410.76-34.95L410.76-34.95L410.76-34.95Q412.55-39.35 415.37-42.08L415.37-42.08L415.37-42.08Q418.19-44.82 421.64-46.03L421.64-46.03L421.64-46.03Q425.08-47.23 428.40-47.23L428.40-47.23L428.40-47.23Q430.98-47.23 433.30-46.65L433.30-46.65L433.30-46.65Q435.63-46.07 437.45-44.99L437.45-44.99L437.45-36.19L437.45-36.19Q436.04-37.69 434.30-38.60L434.30-38.60L434.30-38.60Q432.55-39.51 430.40-39.51L430.40-39.51L430.40-39.51Q427.82-39.51 425.83-38.23L425.83-38.23L425.83-38.23Q423.84-36.94 422.47-34.70L422.47-34.70L422.47-34.70Q421.10-32.46 420.35-29.55L420.35-29.55L420.35-29.55Q419.60-26.65 419.60-23.33L419.60-23.33L419.60-23.33Q419.60-20.00 420.43-17.14L420.43-17.14L420.43-17.14Q421.26-14.28 422.68-12.12L422.68-12.12L422.68-12.12Q424.09-9.96 426.12-8.72L426.12-8.72L426.12-8.72Q428.15-7.47 430.56-7.47L430.56-7.47L430.56-7.47Q434.63-7.47 437.45-10.71L437.45-10.71L437.45-2.08L437.45-2.08Q435.46-1.00 432.84-0.29L432.84-0.29L432.84-0.29Q430.23 0.42 427.32 0.42L427.32 0.42L427.32 0.42Q424.00 0.42 420.81-0.79L420.81-0.79L420.81-0.79Q417.61-1.99 415.12-4.73L415.12-4.73L415.12-4.73Q411.97-8.30 410.47-13.57L410.47-13.57L410.47-13.57Q408.98-18.84 408.98-24.07ZM473.31-14.11L473.31-14.11L473.31-14.11Q473.31-10.38 474.85-8.55L474.85-8.55L474.85-8.55Q476.38-6.72 479.29-6.39L479.29-6.39L479.29 0.33L479.29 0.33Q478.96 0.42 478.21 0.42L478.21 0.42L478.21 0.42Q475.39 0.42 472.77-0.33L472.77-0.33L472.77-0.33Q470.16-1.08 468.16-2.74L468.16-2.74L468.16-2.74Q466.17-4.40 465.05-7.14L465.05-7.14L465.05-7.14Q463.93-9.88 463.93-13.86L463.93-13.86L463.93-13.86Q463.93-17.68 465.55-20.46L465.55-20.46L465.55-20.46Q467.17-23.24 469.70-25.03L469.70-25.03L469.70-25.03Q472.23-26.81 475.47-27.68L475.47-27.68L475.47-27.68Q478.71-28.55 482.03-28.55L482.03-28.55L485.68-28.55L485.68-22.66L483.85-22.66L483.85-22.66Q482.19-22.66 480.37-22.33L480.37-22.33L480.37-22.33Q478.54-22.00 476.96-21.08L476.96-21.08L476.96-21.08Q475.39-20.17 474.35-18.47L474.35-18.47L474.35-18.47Q473.31-16.77 473.31-14.11ZM499.13-14.53L499.13-13.86L499.13-13.86Q499.13-13.20 499.21-11.91L499.21-11.91L499.21-11.91Q499.29-10.63 499.54-9.30L499.54-9.30L499.54-9.30Q499.79-7.97 500.33-6.89L500.33-6.89L500.33-6.89Q500.87-5.81 501.78-5.48L501.78-5.48L499.13 0.08L499.13 0.08Q498.05 0.08 496.84-0.42L496.84-0.42L496.84-0.42Q495.64-0.91 494.52-1.83L494.52-1.83L494.52-1.83Q493.40-2.74 492.61-3.86L492.61-3.86L492.61-3.86Q491.82-4.98 491.41-6.31L491.41-6.31L491.41-6.31Q490.58-4.23 488.13-2.61L488.13-2.61L488.13-2.61Q485.68-1.00 482.69-0.25L482.69-0.25L482.69-6.56L482.69-6.56Q484.68-6.97 486.30-8.18L486.30-8.18L486.30-8.18Q487.92-9.38 489.08-11.04L489.08-11.04L489.08-28.55L489.08-28.55Q489.08-32.62 488.67-35.03L488.67-35.03L488.67-35.03Q488.25-37.44 487.26-38.56L487.26-38.56L487.26-38.56Q486.26-39.68 484.81-39.97L484.81-39.97L484.81-39.97Q483.35-40.26 481.36-40.26L481.36-40.26L481.36-40.26Q479.54-40.26 477.92-39.80L477.92-39.80L477.92-39.80Q476.30-39.35 474.93-38.72L474.93-38.72L474.93-38.72Q473.56-38.10 472.52-37.35L472.52-37.35L472.52-37.35Q471.48-36.61 470.99-36.19L470.99-36.19L467.25-41.92L467.25-41.92Q468.08-42.83 469.74-43.79L469.74-43.79L469.74-43.79Q471.40-44.74 473.56-45.49L473.56-45.49L473.56-45.49Q475.72-46.24 478.25-46.69L478.25-46.69L478.25-46.69Q480.78-47.15 483.52-47.15L483.52-47.15L483.52-47.15Q486.01-47.15 488.38-46.65L488.38-46.65L488.38-46.65Q490.74-46.15 492.69-44.99L492.69-44.99L492.69-44.99Q494.64-43.83 496.10-41.88L496.10-41.88L496.10-41.88Q497.55-39.93 498.13-37.02L498.13-37.02L498.13-37.02Q498.71-34.12 498.92-31.17L498.92-31.17L498.92-31.17Q499.13-28.22 499.13-25.32L499.13-25.32L499.13-14.53ZM529.17 0.33L512.74-46.82L524.11-46.82L533.99-13.53L533.99 0.33L529.17 0.33ZM537.39-13.53L547.35-46.82L558.64-46.82L542.21 0.33L537.39 0.33L537.39-13.53Z" fill="url(#editing-outline-gradient)"></path></g></g><style>text {
  font-size: 64px;
  font-family: Arial Black;
  dominant-baseline: central;
  text-anchor: middle;
}</style></svg>