<svg width="820.765625px" height="174.79999999999998px" xmlns="http://www.w3.org/2000/svg" viewBox="-160.3828125 -12.399999999999991 820.765625 174.79999999999998" style="background: rgba(0, 0, 0, 0);" preserveAspectRatio="xMidYMid"><defs><linearGradient id="editing-outline-gradient" x1="-0.41354545764260087" x2="1.4135454576426008" y1="0.09326335692419985" y2="0.9067366430758002"><stop offset="0" stop-color="#ee4208"></stop><stop offset="1" stop-color="#4139ff"></stop></linearGradient><filter id="editing-outline" x="-100%" y="-100%" width="300%" height="300%"><feMorphology in="SourceGraphic" operator="dilate" radius="1" result="outline"></feMorphology><feComposite operator="out" in="outline" in2="SourceAlpha"></feComposite></filter></defs><g filter="url(#editing-outline)"><g transform="translate(-44.48499298095703, 107.86500358581543)"><path d="M36.52-50.96L36.52-64.57L64.24-64.57L64.24-50.96L60.92-50.96L46.07 0L19.17 0L4.32-50.96L1.00-50.96L1.00-64.57L32.87-64.57L32.87-50.96L28.55-50.96L34.28-23.16L35.11-23.16L40.84-50.96L36.52-50.96ZM87.65-50.71L70.72-50.71L70.72-64.57L87.65-64.57L87.65-50.71ZM93.13 0L66.73 0L66.73-13.61L70.38-13.61L70.38-32.54L66.73-32.54L66.73-46.15L89.47-46.15L89.47-13.61L93.13-13.61L93.13 0ZM137.53-24.65L145.50-13.61L149.07-13.61L149.07 0L128.73 0L120.18-15.94L118.19-15.94L118.19 0L95.45 0L95.45-13.61L99.10-13.61L99.10-50.96L95.45-50.96L95.45-64.57L118.19-64.57L118.19-30.88L120.18-30.88L130.48-46.15L147.99-46.15L147.99-32.54L144.59-32.54L137.53-24.65ZM196.46-13.61L200.11-13.61L200.11 0L178.20 0L178.20-5.64L178.20-5.64Q176.38-2.99 173.10-0.91L173.10-0.91L173.10-0.91Q169.82 1.16 165.09 1.16L165.09 1.16L165.09 1.16Q158.86 1.16 155.29-2.16L155.29-2.16L155.29-2.16Q151.72-5.48 151.72-11.54L151.72-11.54L151.72-11.54Q151.72-27.22 178.37-27.64L178.37-27.64L178.37-27.64Q178.12-30.46 176.21-31.50L176.21-31.50L176.21-31.50Q174.30-32.54 169.74-32.54L169.74-32.54L169.74-32.54Q166.00-32.54 161.73-31.75L161.73-31.75L161.73-31.75Q157.45-30.96 153.88-29.63L153.88-29.63L153.88-44.90L153.88-44.90Q158.28-45.98 163.43-46.65L163.43-46.65L163.43-46.65Q168.57-47.31 173.47-47.31L173.47-47.31L173.47-47.31Q185.84-47.31 191.15-42.83L191.15-42.83L191.15-42.83Q196.46-38.35 196.46-28.97L196.46-28.97L196.46-13.61ZM178.20-18.92L178.20-19.42L178.20-19.42Q174.47-19.42 172.43-18.43L172.43-18.43L172.43-18.43Q170.40-17.43 170.40-15.11L170.40-15.11L170.40-15.11Q170.40-13.70 171.27-12.82L171.27-12.82L171.27-12.82Q172.14-11.95 173.72-11.95L173.72-11.95L173.72-11.95Q175.88-11.95 177.04-13.78L177.04-13.78L177.04-13.78Q178.20-15.60 178.20-18.92L178.20-18.92ZM247.51-13.61L251.16-13.61L251.16 0L229.25 0L229.25-5.64L229.25-5.64Q227.42-2.99 224.14-0.91L224.14-0.91L224.14-0.91Q220.86 1.16 216.13 1.16L216.13 1.16L216.13 1.16Q209.91 1.16 206.34-2.16L206.34-2.16L206.34-2.16Q202.77-5.48 202.77-11.54L202.77-11.54L202.77-11.54Q202.77-27.22 229.41-27.64L229.41-27.64L229.41-27.64Q229.16-30.46 227.25-31.50L227.25-31.50L227.25-31.50Q225.35-32.54 220.78-32.54L220.78-32.54L220.78-32.54Q217.05-32.54 212.77-31.75L212.77-31.75L212.77-31.75Q208.50-30.96 204.93-29.63L204.93-29.63L204.93-44.90L204.93-44.90Q209.33-45.98 214.47-46.65L214.47-46.65L214.47-46.65Q219.62-47.31 224.52-47.31L224.52-47.31L224.52-47.31Q236.88-47.31 242.19-42.83L242.19-42.83L242.19-42.83Q247.51-38.35 247.51-28.97L247.51-28.97L247.51-13.61ZM229.25-18.92L229.25-19.42L229.25-19.42Q225.51-19.42 223.48-18.43L223.48-18.43L223.48-18.43Q221.44-17.43 221.44-15.11L221.44-15.11L221.44-15.11Q221.44-13.70 222.32-12.82L222.32-12.82L222.32-12.82Q223.19-11.95 224.76-11.95L224.76-11.95L224.76-11.95Q226.92-11.95 228.08-13.78L228.08-13.78L228.08-13.78Q229.25-15.60 229.25-18.92L229.25-18.92ZM273.98 1.16L273.98 1.16Q263.53 1.16 253.81-2.16L253.81-2.16L253.81-14.44L267.26-14.44L267.26-13.61L267.26-13.61Q267.26-9.63 272.32-9.63L272.32-9.63L272.32-9.63Q276.81-9.63 276.81-12.70L276.81-12.70L276.81-12.70Q276.81-14.36 275.52-15.19L275.52-15.19L275.52-15.19Q274.23-16.02 271.00-16.60L271.00-16.60L266.85-17.35L266.85-17.35Q253.81-19.67 253.81-32.12L253.81-32.12L253.81-32.12Q253.81-39.34 259.29-43.33L259.29-43.33L259.29-43.33Q264.77-47.31 274.07-47.31L274.07-47.31L274.07-47.31Q284.44-47.31 291.58-43.82L291.58-43.82L291.58-32.29L278.96-32.29L278.96-33.12L278.96-33.12Q278.96-34.78 277.84-35.65L277.84-35.65L277.84-35.65Q276.72-36.52 274.56-36.52L274.56-36.52L274.56-36.52Q270.41-36.52 270.41-33.86L270.41-33.86L270.41-33.86Q270.41-32.45 271.58-31.71L271.58-31.71L271.58-31.71Q272.74-30.96 275.81-30.30L275.81-30.30L280.54-29.38L280.54-29.38Q287.93-27.97 291.08-24.15L291.08-24.15L291.08-24.15Q294.24-20.34 294.24-14.36L294.24-14.36L294.24-14.36Q294.24-6.81 288.96-2.82L288.96-2.82L288.96-2.82Q283.69 1.16 273.98 1.16L273.98 1.16ZM358.23-50.96L358.23-64.57L383.71-64.57L383.71-50.96L380.39-50.96L364.37-22.24L364.37-13.61L368.52-13.61L368.52 0L336.98 0L336.98-13.61L341.13-13.61L341.13-22.24L324.61-50.96L321.29-50.96L321.29-64.57L353.41-64.57L353.41-50.96L350.51-50.96L355.41-38.10L356.24-38.10L361.13-50.96L358.23-50.96ZM427.62-13.61L431.27-13.61L431.27 0L409.36 0L409.36-5.64L409.36-5.64Q407.53-2.99 404.25-0.91L404.25-0.91L404.25-0.91Q400.97 1.16 396.24 1.16L396.24 1.16L396.24 1.16Q390.02 1.16 386.45-2.16L386.45-2.16L386.45-2.16Q382.88-5.48 382.88-11.54L382.88-11.54L382.88-11.54Q382.88-27.22 409.52-27.64L409.52-27.64L409.52-27.64Q409.27-30.46 407.36-31.50L407.36-31.50L407.36-31.50Q405.46-32.54 400.89-32.54L400.89-32.54L400.89-32.54Q397.16-32.54 392.88-31.75L392.88-31.75L392.88-31.75Q388.61-30.96 385.04-29.63L385.04-29.63L385.04-44.90L385.04-44.90Q389.44-45.98 394.58-46.65L394.58-46.65L394.58-46.65Q399.73-47.31 404.63-47.31L404.63-47.31L404.63-47.31Q416.99-47.31 422.30-42.83L422.30-42.83L422.30-42.83Q427.62-38.35 427.62-28.97L427.62-28.97L427.62-13.61ZM409.36-18.92L409.36-19.42L409.36-19.42Q405.62-19.42 403.59-18.43L403.59-18.43L403.59-18.43Q401.55-17.43 401.55-15.11L401.55-15.11L401.55-15.11Q401.55-13.70 402.43-12.82L402.43-12.82L402.43-12.82Q403.30-11.95 404.87-11.95L404.87-11.95L404.87-11.95Q407.03-11.95 408.19-13.78L408.19-13.78L408.19-13.78Q409.36-15.60 409.36-18.92L409.36-18.92ZM450.28 1.16L450.28 1.16Q441.81 1.16 437.53-5.15L437.53-5.15L437.53-5.15Q433.26-11.45 433.26-23.07L433.26-23.07L433.26-23.07Q433.26-34.69 437.53-41.00L437.53-41.00L437.53-41.00Q441.81-47.31 450.28-47.31L450.28-47.31L450.28-47.31Q454.51-47.31 457.79-45.23L457.79-45.23L457.79-45.23Q461.07-43.16 463.14-40.50L463.14-40.50L463.14-50.96L458.24-50.96L458.24-64.57L482.23-64.57L482.23-13.61L485.88-13.61L485.88 0L463.14 0L463.14-5.64L463.14-5.64Q461.07-2.99 457.79-0.91L457.79-0.91L457.79-0.91Q454.51 1.16 450.28 1.16L450.28 1.16ZM458.33-13.61L458.33-13.61Q460.73-13.61 461.94-14.90L461.94-14.90L461.94-14.90Q463.14-16.19 463.14-18.92L463.14-18.92L463.14-27.22L463.14-27.22Q463.14-29.96 461.94-31.25L461.94-31.25L461.94-31.25Q460.73-32.54 458.33-32.54L458.33-32.54L458.33-32.54Q455.92-32.54 454.72-31.25L454.72-31.25L454.72-31.25Q453.51-29.96 453.51-27.22L453.51-27.22L453.51-18.92L453.51-18.92Q453.51-16.19 454.72-14.90L454.72-14.90L454.72-14.90Q455.92-13.61 458.33-13.61L458.33-13.61ZM533.28-13.61L536.93-13.61L536.93 0L515.02 0L515.02-5.64L515.02-5.64Q513.19-2.99 509.91-0.91L509.91-0.91L509.91-0.91Q506.63 1.16 501.90 1.16L501.90 1.16L501.90 1.16Q495.68 1.16 492.11-2.16L492.11-2.16L492.11-2.16Q488.54-5.48 488.54-11.54L488.54-11.54L488.54-11.54Q488.54-27.22 515.18-27.64L515.18-27.64L515.18-27.64Q514.93-30.46 513.02-31.50L513.02-31.50L513.02-31.50Q511.11-32.54 506.55-32.54L506.55-32.54L506.55-32.54Q502.81-32.54 498.54-31.75L498.54-31.75L498.54-31.75Q494.27-30.96 490.70-29.63L490.70-29.63L490.70-44.90L490.70-44.90Q495.10-45.98 500.24-46.65L500.24-46.65L500.24-46.65Q505.39-47.31 510.28-47.31L510.28-47.31L510.28-47.31Q522.65-47.31 527.96-42.83L527.96-42.83L527.96-42.83Q533.28-38.35 533.28-28.97L533.28-28.97L533.28-13.61ZM515.02-18.92L515.02-19.42L515.02-19.42Q511.28-19.42 509.25-18.43L509.25-18.43L509.25-18.43Q507.21-17.43 507.21-15.11L507.21-15.11L507.21-15.11Q507.21-13.70 508.08-12.82L508.08-12.82L508.08-12.82Q508.96-11.95 510.53-11.95L510.53-11.95L510.53-11.95Q512.69-11.95 513.85-13.78L513.85-13.78L513.85-13.78Q515.02-15.60 515.02-18.92L515.02-18.92ZM574.28 0L549.54 0L539.09-32.54L535.60-32.54L535.60-46.15L561.25-46.15L561.25-32.54L557.76-32.54L562.16-16.10L562.99-16.10L567.39-32.54L563.90-32.54L563.90-46.15L587.97-46.15L587.97-32.54L584.49-32.54L574.28 0Z" fill="url(#editing-outline-gradient)"></path></g></g><style>text {
  font-size: 64px;
  font-family: Arial Black;
  dominant-baseline: central;
  text-anchor: middle;
}</style></svg>